<svg viewBox="0 0 1000 470.70000000000005" xmlns="http://www.w3.org/2000/svg" width="2500" height="1177"><g fill="#414141"><path d="M489.3 370.9h-40v-55.5h40c18.9.3 31.8 11 31.8 27.7s-12.9 27.8-31.8 27.8m5.4-96.4H402v196.1h47.3v-56.1h45.2c49.9 0 74.2-35.4 74.2-71.3-.1-36-24.1-68.7-74-68.7M942 394.2l-89.9-119.7h-48.2v196.1h48.2v-120l89.9 120h48.2V274.5H942zM424.1 215v-19h19.1c8.8 0 13.3 2.3 13.3 9.5 0 6.3-4.4 9.5-13.3 9.5zm0-57.6h17.7c8.5 0 12.5 3.2 12.5 9.8 0 7.6-3 10.7-12.5 10.7h-17.7zm56.3 49.3c0-10.5-4.9-19-13.7-23.8 2-1.6 8.6-8.6 8.6-18.7 0-15.7-8.4-27-34.9-27H402v98h43.8c25 .1 34.6-12.4 34.6-28.5zM671.1 175.3l50 60h24v-98h-24v59.8l-50-59.8h-24v98h24zM872.5 215.9L853 202.5c-4.7 5.7-11.7 9.3-19.6 9.3-14.1 0-25.5-11.4-25.5-25.5s11.4-25.5 25.5-25.5c7.9 0 15 3.6 19.6 9.2l19.5-13.4c-9-11.8-23.1-19.4-39.1-19.4-27.1 0-49.1 21.9-49.1 49s22 49 49.1 49c16 .1 30.2-7.5 39.1-19.3M951 160.8c14.1 0 25.5 11.4 25.5 25.5s-11.4 25.5-25.5 25.5-25.5-11.4-25.5-25.5 11.4-25.5 25.5-25.5m0 74.5c27.1 0 49-21.9 49-49s-21.9-49-49-49-49 21.9-49 49c0 27 21.9 49 49 49M564.1 164.1l13.3 32.5c-4.4.7-8.9 1-13.4 1s-8.9-.4-13.3-1zM542.2 217c7.1 1.5 14.4 2.2 21.7 2.2 6.5 0 13.1-.6 19.5-1.8.7-.1 1.5-.3 2.2-.5l7.4 18.3h24.5l-40.9-98h-25.7l-41.3 98h24.9zM666.7 396.1c-9.1 0-18.2-.7-27.1-2.1l27.4-65.9 27 65.9c-9.1 1.4-18.2 2.1-27.3 2.1zm-25.9-121.6l-81.9 196.1h49l15.2-36.5c14.3 2.9 28.9 4.4 43.7 4.4 13.1 0 26.3-1.2 39.2-3.5l4.5-.9 15 36.6h49.3l-82.2-196.1h-51.8zM142.2 314.2c-32.2 0-58.3-25.6-58.3-57.2 0-31.5 26.1-57.2 58.3-57.2s58.3 25.6 58.3 57.2c0 31.5-26.2 57.2-58.3 57.2m0-196.6C63.8 117.6 0 180.2 0 257v213.6h83.9v-86.2l6.6 2.5c16.5 6.3 33.9 9.5 51.7 9.5 78.4 0 142.2-62.5 142.2-139.4-.1-76.8-63.9-139.4-142.2-139.4"/></g><path d="M0 78.4h78.4V0H0z" fill="#00c5ff"/></svg>